<?xml version="1.0" encoding="utf-8"?>
<!-- Generator: Adobe Illustrator 21.0.0, SVG Export Plug-In . SVG Version: 6.00 Build 0)  -->
<svg version="1.1" id="vv" xmlns="http://www.w3.org/2000/svg" xmlns:xlink="http://www.w3.org/1999/xlink" x="0px" y="0px"
	 viewBox="0 0 2272 1872" style="enable-background:new 0 0 2272 1872;" xml:space="preserve">
<style type="text/css">
	.st0{fill:#FFD85A;}
	.st1{fill:#E2B844;}
	.st2{fill:#CCA33E;}
	.st3{fill:#B78E34;}
	.st4{fill:#99752C;}
	.st5{fill:#ED875F;}
	.st6{fill:#D16F52;}
	.st7{fill:#606060;}
	.st8{fill:#FFC9AE;}
	.st9{fill:#FCA87A;}
	.st10{fill:#C4576C;}
	.st11{fill:#AD4961;}
	.st12{fill:#DD6683;}
	.st13{fill:#FF996C;}
	.st14{fill:#D38259;}
	.st15{fill:#A8802F;}
</style>
<g id="Layer_1_1_">
</g>
<g id="Layer_2">
</g>
<g>
	<rect class="st0" width="2272.5" height="1872"/>
	<g>
		<rect y="1317.3" class="st1" width="2272.5" height="110.3"/>
		<rect y="1552.8" class="st1" width="2272.5" height="110.3"/>
		<rect y="1788.3" class="st1" width="2272.5" height="83.7"/>
	</g>
	<rect x="0" y="1.6" class="st1" width="2272.5" height="1227.6"/>
	<path class="st2" d="M1232.1,347.8H102.4c-20.1,0-36.4,16.3-36.4,36.4l0,0c0,20.1,16.3,36.4,36.4,36.4h1129.7
		c20.1,0,36.4-16.3,36.4-36.4l0,0C1268.5,364.1,1252.2,347.8,1232.1,347.8z"/>
	<path class="st3" d="M1232.1,347.8H102.4c-12.7,0-23.9,6.5-30.4,16.4c172.1,0,904,0,1190.5,0C1256,354.3,1244.8,347.8,1232.1,347.8
		z"/>
	<g>
		<rect y="885.6" class="st2" width="551.2" height="344.6"/>
		<path class="st3" d="M390.7,927.6H82.1c-18.4,0-33.3,14.9-33.3,33.3v270.4H424V960.9C424,942.5,409.1,927.6,390.7,927.6z"/>
		<circle class="st4" cx="110.9" cy="1167.3" r="27.6"/>
	</g>
	<g>
		
			<rect x="1720.6" y="885.6" transform="matrix(-1 -4.489665e-11 4.489665e-11 -1 3992.4795 2115.6682)" class="st2" width="551.2" height="344.6"/>
		<path class="st3" d="M1881.1,927.6h308.6c18.4,0,33.3,14.9,33.3,33.3v270.4l-375.3,0V960.9
			C1847.8,942.5,1862.7,927.6,1881.1,927.6z"/>
		<circle class="st4" cx="2161" cy="1167.3" r="27.6"/>
	</g>
	<g>
		<path class="st5" d="M0,1430.2c8.4-2.8,459.3-136.5,459.3-136.5h1493L1151.1,1872H0V1430.2z"/>
		<g>
			<path class="st6" d="M1919.6,1317.3H379.8C263,1351.9,54,1414,8.7,1427.6h1758.1L1919.6,1317.3z"/>
			<polygon class="st6" points="0,1663.1 1440.5,1663.1 1593.3,1552.8 0,1552.8 			"/>
			<polygon class="st6" points="0,1872 1151.1,1872 1267,1788.3 0,1788.3 			"/>
		</g>
		<g>
			<g>
				<path class="st7" d="M1952.3,1309.2h-239c-8.6,0-15.5-6.9-15.5-15.5s6.9-15.5,15.5-15.5h239c8.6,0,15.5,6.9,15.5,15.5
					S1960.8,1309.2,1952.3,1309.2z"/>
			</g>
			<g>
				<g>
					
						<ellipse transform="matrix(0.9997 -2.359939e-02 2.359939e-02 0.9997 -24.5392 36.4867)" class="st5" cx="1533.6" cy="1057.9" rx="325.2" ry="325.2"/>
				</g>
				<g>
					<circle class="st8" cx="1488.8" cy="1057.9" r="307.3"/>
				</g>
				<g>
					<circle class="st9" cx="1488.8" cy="1057.9" r="281.6"/>
				</g>
				<g>
					<circle class="st10" cx="1488.8" cy="1057.9" r="224.5"/>
				</g>
				<g>
					<g>
						<path class="st7" d="M1490,1386.2c-87.4,0-169.6-34-231.4-95.8c-61.8-61.8-95.8-144-95.8-231.4c0-87.4,34-169.6,95.8-231.4
							s144-95.8,231.4-95.8c81.7,0,159.9,30.3,220.2,85.2c6.3,5.8,6.8,15.6,1,21.9c-5.8,6.3-15.6,6.8-21.9,1
							c-54.6-49.7-125.4-77.1-199.4-77.1c-79.1,0-153.5,30.8-209.4,86.7c-55.9,55.9-86.7,130.3-86.7,209.4
							c0,79.1,30.8,153.5,86.7,209.4c55.9,55.9,130.3,86.7,209.4,86.7s153.5-30.8,209.4-86.7s86.7-130.3,86.7-209.4
							c0-23.4-2.7-46.7-8.1-69.3c-2-8.3,3.1-16.7,11.5-18.7c8.3-2,16.7,3.1,18.7,11.5c6,24.9,9,50.6,9,76.5
							c0,87.4-34,169.6-95.8,231.4C1659.5,1352.2,1577.3,1386.2,1490,1386.2z"/>
					</g>
					<g>
						<path class="st7" d="M1490,1289.7c-57.6,0-112.7-21.3-155.3-60.1c-6.3-5.8-6.8-15.6-1-21.9c5.8-6.3,15.6-6.8,21.9-1
							c36.8,33.5,84.6,52,134.4,52c110.1,0,199.7-89.6,199.7-199.7c0-110.1-89.6-199.7-199.7-199.7c-110.1,0-199.7,89.6-199.7,199.7
							c0,15.8,1.8,31.5,5.5,46.7c2,8.3-3.1,16.7-11.5,18.7c-8.3,2-16.7-3.1-18.7-11.5c-4.2-17.6-6.3-35.7-6.3-53.9
							c0-61.6,24-119.5,67.6-163.1s101.5-67.6,163.1-67.6s119.5,24,163.1,67.6s67.6,101.5,67.6,163.1s-24,119.5-67.6,163.1
							S1551.6,1289.7,1490,1289.7z"/>
					</g>
					<g>
						<path class="st7" d="M1548.2,1388.4c-8.6,0-15.5-6.9-15.5-15.5s6.9-15.5,15.5-15.5c79.1,0,153.5-30.8,209.4-86.7
							c55.9-55.9,86.7-130.3,86.7-209.4c0-90.5-40.6-174.9-111.4-231.5c-6.7-5.3-7.8-15.1-2.4-21.8c5.3-6.7,15.1-7.8,21.8-2.4
							c78.2,62.5,123,155.7,123,255.7c0,87.4-34,169.6-95.8,231.4C1717.7,1354.3,1635.6,1388.4,1548.2,1388.4z"/>
					</g>
					<g>
						<path class="st7" d="M1490,1289.7c-8.5,0-15.4-6.9-15.5-15.4c-0.4-69.1-2.4-414.5,0.2-432.6c1.2-8.5,9.1-14.4,17.5-13.1
							c8.4,1.2,14.3,9,13.2,17.4c-1.7,15.9-0.9,264.7,0.1,428.1C1505.5,1282.7,1498.6,1289.7,1490,1289.7
							C1490,1289.7,1490,1289.7,1490,1289.7z"/>
					</g>
					<g>
						<path class="st7" d="M1704.6,1075.1c-0.7,0-1.4,0-2.1-0.1c-15.9-1.7-264.7-0.9-428.1,0.1c0,0-0.1,0-0.1,0
							c-8.5,0-15.4-6.9-15.5-15.4c-0.1-8.6,6.8-15.5,15.4-15.6c69.1-0.4,414.5-2.4,432.6,0.2c8.5,1.2,14.4,9.1,13.1,17.5
							C1718.8,1069.6,1712.2,1075.1,1704.6,1075.1z"/>
					</g>
					<g>
						<path class="st7" d="M1337.6,1227.1c-3.9,0-7.9-1.5-10.9-4.5c-6.1-6-6.2-15.8-0.1-21.9c48.5-49.1,291.4-294.8,306-305.8
							c6.8-5.1,16.6-3.7,21.7,3.1c5.1,6.8,3.8,16.5-3,21.6c-12.5,10-187.8,186.5-302.6,302.8
							C1345.6,1225.6,1341.6,1227.1,1337.6,1227.1z"/>
					</g>
					<g>
						<path class="st7" d="M1641.1,1227.1c-4.7,0-9.3-2.1-12.4-6.1c-10-12.5-186.5-187.8-302.8-302.6c-6.1-6-6.2-15.8-0.1-21.9
							s15.8-6.2,21.9-0.1c49.1,48.5,294.8,291.4,305.8,306c5.1,6.8,3.7,16.6-3.1,21.7C1647.6,1226.1,1644.4,1227.1,1641.1,1227.1z"
							/>
					</g>
				</g>
				<g>
					<circle class="st11" cx="1652.1" cy="988.4" r="10.1"/>
				</g>
				<g>
					<circle class="st11" cx="1658.9" cy="1018.9" r="10.1"/>
				</g>
				<g>
					<circle class="st11" cx="1396.4" cy="911.9" r="10.1"/>
				</g>
				<g>
					<circle class="st12" cx="1314.3" cy="1018.9" r="10.1"/>
				</g>
				<g>
					<circle class="st12" cx="1339.9" cy="1095.3" r="10.1"/>
				</g>
				<g>
					<circle class="st11" cx="1310" cy="1095.3" r="10.1"/>
				</g>
				<g>
					<circle class="st11" cx="1391.7" cy="1105.4" r="10.1"/>
				</g>
				<g>
					<circle class="st11" cx="1441.5" cy="1177.5" r="10.1"/>
				</g>
				<g>
					<circle class="st11" cx="1525.6" cy="1235.5" r="10.1"/>
				</g>
				<g>
					<circle class="st12" cx="1418.6" cy="1215.2" r="10.1"/>
				</g>
				<g>
					<circle class="st11" cx="1456.4" cy="1231.4" r="10.1"/>
				</g>
				<g>
					<circle class="st12" cx="1542.2" cy="1170.8" r="10.1"/>
				</g>
				<g>
					<circle class="st11" cx="1641.1" cy="1152.2" r="10.1"/>
				</g>
				<g>
					<circle class="st11" cx="1608.4" cy="1085.1" r="10.1"/>
				</g>
				<g>
					<circle class="st11" cx="1522.5" cy="1142.1" r="10.1"/>
				</g>
				<g>
					<circle class="st11" cx="1585.9" cy="1211.6" r="10.1"/>
				</g>
				<g>
					<circle class="st11" cx="1662.2" cy="1105.4" r="10.1"/>
				</g>
				<g>
					<circle class="st11" cx="1575.8" cy="1095.3" r="10.1"/>
				</g>
				<g>
					<circle class="st11" cx="1603.7" cy="1115.5" r="10.1"/>
				</g>
				<g>
					<circle class="st12" cx="1631" cy="1109.4" r="10.1"/>
				</g>
				<g>
					<circle class="st11" cx="1535.8" cy="1205.1" r="10.1"/>
				</g>
				<g>
					<circle class="st11" cx="1314.3" cy="1129.6" r="10.1"/>
				</g>
				<g>
					<circle class="st11" cx="1354" cy="1137" r="10.1"/>
				</g>
				<g>
					<circle class="st11" cx="1391.7" cy="1209" r="10.1"/>
				</g>
				<g>
					<circle class="st12" cx="1446.2" cy="1147.1" r="10.1"/>
				</g>
				<g>
					<circle class="st12" cx="1324.4" cy="1157.3" r="10.1"/>
				</g>
				<g>
					<circle class="st11" cx="1558.3" cy="894.4" r="10.1"/>
				</g>
				<g>
					<circle class="st12" cx="1522" cy="927.6" r="10.1"/>
				</g>
				<g>
					<circle class="st11" cx="1575.8" cy="927.6" r="10.1"/>
				</g>
				<g>
					<circle class="st12" cx="1428.7" cy="947.8" r="10.1"/>
				</g>
				<g>
					<circle class="st11" cx="1456.8" cy="978.3" r="10.1"/>
				</g>
				<g>
					<circle class="st11" cx="1451.6" cy="927.6" r="10.1"/>
				</g>
				<g>
					<circle class="st11" cx="1343.9" cy="968.2" r="10.1"/>
				</g>
				<g>
					<circle class="st11" cx="1391.7" cy="1012.8" r="10.1"/>
				</g>
				<g>
					<circle class="st11" cx="1347.8" cy="1012.8" r="10.1"/>
				</g>
				<g>
					<circle class="st12" cx="1368" cy="988.4" r="10.1"/>
				</g>
				<g>
					<circle class="st11" cx="1446.2" cy="889.7" r="10.1"/>
				</g>
				<g>
					<circle class="st11" cx="1528.7" cy="968.2" r="10.1"/>
				</g>
				<g>
					<circle class="st11" cx="1613.8" cy="995.3" r="10.1"/>
				</g>
				<g>
					<circle class="st12" cx="1575.8" cy="1022.9" r="10.1"/>
				</g>
			</g>
			<g>
				<g>
					<g>
						<path class="st7" d="M1245.3,1360.4H384.4c-8.6,0-15.5-6.9-15.5-15.5s6.9-15.5,15.5-15.5h860.9c8.6,0,15.5,6.9,15.5,15.5
							S1253.9,1360.4,1245.3,1360.4z"/>
					</g>
					<g>
						<path class="st7" d="M1310,1434.4H319.7c-8.6,0-15.5-6.9-15.5-15.5s6.9-15.5,15.5-15.5H1310c8.6,0,15.5,6.9,15.5,15.5
							S1318.6,1434.4,1310,1434.4z"/>
					</g>
					<g>
						<g>
							<path class="st13" d="M459.3,872.2v329.1c0,190.1,131.4,278.4,293.5,278.4h152.5c162.1,0,293.5-81.5,293.5-278.4V854.2"/>
						</g>
						<g>
							<ellipse class="st5" cx="829" cy="1086.1" rx="369.7" ry="153.9"/>
						</g>
						<g>
							<path class="st5" d="M459.3,872.2v213.9c0-85,165.5-153.9,369.7-153.9s369.7,68.9,369.7,153.9V854.2L459.3,872.2z"/>
						</g>
						<g>
							<ellipse class="st8" cx="829" cy="893.9" rx="369.7" ry="153.9"/>
						</g>
						<g>
							<ellipse class="st9" cx="829" cy="873.2" rx="369.7" ry="153.9"/>
						</g>
						<g>
							<path class="st7" d="M829,1042.6c-75.5,0-148.4-9.3-210.9-26.9c-8.2-2.3-13-10.9-10.7-19.1c2.3-8.2,10.9-13,19.1-10.7
								c59.8,16.8,129.8,25.7,202.5,25.7c50.1,0,98.6-4.2,144.2-12.4c8.4-1.5,16.5,4.1,18,12.5c1.5,8.4-4.1,16.5-12.5,18
								C931.4,1038.3,881,1042.6,829,1042.6z"/>
						</g>
						<g>
							<path class="st7" d="M1123.4,981.9c-5.5,0-10.8-2.9-13.6-8.1c-4.1-7.5-1.3-16.9,6.2-21c43.4-23.7,67.3-52,67.3-79.6
								c0-19.6-11.5-38.9-34.1-57.5c-23.6-19.4-58.6-36.8-101.1-50.3c-8.2-2.6-12.7-11.3-10.1-19.5s11.3-12.7,19.5-10.1
								c99.7,31.6,156.8,81.6,156.8,137.3c0,27.9-14.5,69.1-83.5,106.8C1128.4,981.2,1125.9,981.9,1123.4,981.9z"/>
						</g>
						<g>
							<path class="st7" d="M459.3,836.7c-8.6,0-15.5-6.9-15.5-15.5V553.7c0-8.6,6.9-15.5,15.5-15.5s15.5,6.9,15.5,15.5v267.6
								C474.8,829.8,467.9,836.7,459.3,836.7z"/>
						</g>
						<g>
							<path class="st7" d="M940.1,1503.4H718c-73.2,0-142.1-28.5-193.9-80.3c-51.8-51.8-80.3-120.6-80.3-193.9V988.4
								c0-8.6,6.9-15.5,15.5-15.5s15.5,6.9,15.5,15.5v240.8c0,65,25.3,126,71.2,172c45.9,45.9,107,71.2,172,71.2h222.1
								c65,0,126-25.3,172-71.2c45.9-45.9,71.2-107,71.2-172v-226c0-8.6,6.9-15.5,15.5-15.5s15.5,6.9,15.5,15.5v226
								c0,73.2-28.5,142.1-80.3,193.9C1082.2,1474.9,1013.3,1503.4,940.1,1503.4z"/>
						</g>
						<g>
							<path class="st7" d="M1198.8,947.7c-8.6,0-15.5-6.9-15.5-15.5V776.3c0-8.6,6.9-15.5,15.5-15.5s15.5,6.9,15.5,15.5v155.9
								C1214.3,940.7,1207.3,947.7,1198.8,947.7z"/>
						</g>
						<g>
							<path class="st7" d="M1198.8,723.1c-8.6,0-15.5-6.9-15.5-15.5V537.7c0-8.6,6.9-15.5,15.5-15.5s15.5,6.9,15.5,15.5v169.9
								C1214.3,716.1,1207.3,723.1,1198.8,723.1z"/>
						</g>
						<g>
							<path class="st7" d="M1059.2,689.6c-6.5,0-12.6-4.1-14.7-10.6c-2.7-8.1,1.7-16.9,9.8-19.6c39.8-13.2,73.1-31.1,96.2-51.8
								c21.4-19.2,32.7-39.6,32.7-58.9c0-8.6,6.9-15.5,15.5-15.5s15.5,6.9,15.5,15.5c0,55.7-57.5,109.4-150.2,140.2
								C1062.5,689.4,1060.8,689.6,1059.2,689.6z"/>
						</g>
						<g>
							<path class="st7" d="M829,723.1c-100.8,0-195.7-16.4-267.4-46.3c-76-31.6-117.8-75.4-117.8-123.1s41.8-91.5,117.8-123.1
								c71.7-29.8,166.6-46.3,267.4-46.3c77.6,0,152.2,9.8,215.8,28.3c8.2,2.4,12.9,11,10.6,19.2c-2.4,8.2-11,12.9-19.2,10.6
								c-60.8-17.7-132.4-27-207.1-27c-96.8,0-187.5,15.6-255.5,43.9c-62.8,26.1-98.7,60.6-98.7,94.5s36,68.4,98.7,94.5
								c68,28.3,158.7,43.9,255.5,43.9c8.6,0,15.5,6.9,15.5,15.5S837.6,723.1,829,723.1z"/>
						</g>
						<g>
							<line class="st13" x1="1198.8" y1="854.2" x2="459.3" y2="872.2"/>
						</g>
						<g>
							<circle class="st5" cx="566.3" cy="1282.4" r="11.3"/>
						</g>
						<g>
							<circle class="st5" cx="528.6" cy="1333.6" r="11.3"/>
						</g>
						<g>
							<circle class="st5" cx="630.4" cy="1322.3" r="11.3"/>
						</g>
						<g>
							<circle class="st5" cx="784.1" cy="1322.3" r="11.3"/>
						</g>
						<g>
							<circle class="st5" cx="947.5" cy="1383.7" r="11.3"/>
						</g>
						<g>
							<circle class="st5" cx="1078.1" cy="1383.7" r="11.3"/>
						</g>
						<g>
							<circle class="st5" cx="1017.7" cy="1282.4" r="11.3"/>
						</g>
						<g>
							<circle class="st13" cx="1089.4" cy="1097.4" r="11.3"/>
						</g>
						<g>
							<circle class="st13" cx="678.5" cy="1108.7" r="11.3"/>
						</g>
						<g>
							<circle class="st13" cx="1162.4" cy="1108.7" r="11.3"/>
						</g>
						<g>
							<circle class="st13" cx="873.3" cy="1133.1" r="11.3"/>
						</g>
						<g>
							<circle class="st8" cx="1029" cy="893.9" r="11.3"/>
						</g>
						<g>
							<circle class="st8" cx="539.9" cy="882.6" r="11.3"/>
						</g>
						<g>
							<circle class="st8" cx="862" cy="832.6" r="11.3"/>
						</g>
						<g>
							<circle class="st13" cx="1112.1" cy="1047.8" r="11.3"/>
						</g>
						<g>
							<circle class="st13" cx="1006.4" cy="1155.7" r="11.3"/>
						</g>
						<g>
							<circle class="st13" cx="924.9" cy="1191.2" r="11.3"/>
						</g>
						<g>
							<circle class="st13" cx="1006.4" cy="1071.6" r="11.3"/>
						</g>
						<g>
							<circle class="st5" cx="1151.1" cy="1259.8" r="11.3"/>
						</g>
						<g>
							<circle class="st5" cx="517.3" cy="1213.8" r="11.3"/>
						</g>
						<g>
							<path class="st8" d="M532.4,1014.1L532.4,1014.1c-10.4,0-18.8,8.4-18.8,18.8v281.9c0,10.4,8.4,18.8,18.8,18.8h0
								c10.4,0,18.8-8.4,18.8-18.8v-281.9C551.2,1022.5,542.8,1014.1,532.4,1014.1z"/>
						</g>
					</g>
					<g>
						<path class="st7" d="M1310,1508.4H319.7c-8.6,0-15.5-6.9-15.5-15.5s6.9-15.5,15.5-15.5H1310c8.6,0,15.5,6.9,15.5,15.5
							S1318.6,1508.4,1310,1508.4z"/>
					</g>
					<g>
						<path class="st7" d="M1245.3,1568.3H384.4c-8.6,0-15.5-6.9-15.5-15.5s6.9-15.5,15.5-15.5h860.9c8.6,0,15.5,6.9,15.5,15.5
							S1253.9,1568.3,1245.3,1568.3z"/>
					</g>
				</g>
				<g>
					<g>
						<path class="st9" d="M939.7,534l222.6-210.4c0,0,200.7,80.3,117.8,334.8l-50.4-9.6l-31-33.1l13.1-36
							c11.2-30.7-12-54-44.6-53.4L939.7,534z"/>
					</g>
					<g>
						<g>
							<path class="st8" d="M1249.4,432.7c-7.2-12.2-22.1-17.6-35.5-13l-242.5,84.4L939.7,534l227.5-7.6
								c32.7-0.7,55.8,22.7,44.6,53.4l-13.1,36l27,28.8C1291.8,536.6,1268.6,465.2,1249.4,432.7z"/>
						</g>
						<g>
							<path class="st10" d="M1256.3,477.9c-2-14.1-15.7-23.4-29.5-20l-283.5,69.4l-5.6,5.3l227.5-7.6c32.7-0.7,55.8,22.7,44.6,53.4
								l-13.1,36l14.6,15.6C1258,561.8,1260.5,507.8,1256.3,477.9z"/>
						</g>
						<g>
							<path class="st7" d="M1280.2,669.6c-1,0-1.9-0.1-2.9-0.3l-81.4-15.5c-8.4-1.6-13.9-9.7-12.3-18.1c1.6-8.4,9.7-13.9,18.1-12.3
								l67.4,12.8c14.7-55.3,18.7-105.1,11.9-148.2c-5.8-36.5-19.3-68.4-40.3-94.7c-27.2-34.2-60.2-50.4-74.9-56.4L955.3,524.5
								l240.5-4.8c8.5-0.2,15.6,6.6,15.8,15.2c0.2,8.6-6.6,15.6-15.2,15.8L914,556.4c-6.5,0.1-12.4-3.8-14.7-9.8
								c-2.4-6-0.7-12.9,4.1-17.2L1152,307.6c4-3.5,9.5-4.8,14.6-3.3c3.1,0.9,75.7,22.3,118.5,99.9c36.6,66.3,39.9,151.8,10,254.2
								C1293.1,665.1,1286.9,669.6,1280.2,669.6z"/>
						</g>
						<g>
							<path class="st7" d="M913.6,556.4c-6.7,0-12.9-4.4-14.9-11.2c-2.4-8.2,2.4-16.8,10.6-19.2l303.2-87.1
								c8.2-2.4,16.8,2.4,19.2,10.6c2.4,8.2-2.4,16.8-10.6,19.2l-303.2,87.1C916.5,556.2,915,556.4,913.6,556.4z"/>
						</g>
						<g>
							<circle class="st11" cx="1218.5" cy="501.2" r="10.1"/>
						</g>
						<g>
							<circle class="st11" cx="1228.6" cy="543.5" r="10.1"/>
						</g>
						<g>
							<circle class="st11" cx="1178.3" cy="501.2" r="10.1"/>
						</g>
						<g>
							<circle class="st14" cx="1188.4" cy="394.6" r="10.1"/>
						</g>
						<g>
							<circle class="st14" cx="1159.4" cy="374.3" r="10.1"/>
						</g>
						<g>
							<circle class="st14" cx="1139.1" cy="418.1" r="10.1"/>
						</g>
						<g>
							<circle class="st14" cx="1087.6" cy="428.2" r="10.1"/>
						</g>
						<g>
							<circle class="st11" cx="1139.1" cy="507.5" r="10.1"/>
						</g>
					</g>
				</g>
			</g>
			<g>
				<path class="st7" d="M1813.3,1410.5h-416.9c-8.6,0-15.5-6.9-15.5-15.5s6.9-15.5,15.5-15.5h416.9c8.6,0,15.5,6.9,15.5,15.5
					S1821.9,1410.5,1813.3,1410.5z"/>
			</g>
			<g>
				<path class="st7" d="M1859.9,1360.4h-239c-8.6,0-15.5-6.9-15.5-15.5s6.9-15.5,15.5-15.5h239c8.6,0,15.5,6.9,15.5,15.5
					S1868.4,1360.4,1859.9,1360.4z"/>
			</g>
		</g>
	</g>
	<g>
		<rect x="1604.9" y="73.7" class="st0" width="270.5" height="290.5"/>
		<rect x="1909.8" y="73.7" class="st0" width="270.5" height="290.5"/>
		<rect x="1604.9" y="392.1" class="st0" width="270.5" height="290.5"/>
		<rect x="1909.8" y="392.1" class="st0" width="270.5" height="290.5"/>
	</g>
	<g>
		<path class="st3" d="M778.4,192.5c-18.7-15.1-39.3-27.7-61.3-37.4c14.5-0.1,29,4.5,40.8,12.9c-12.5-9.9-25.5-19.1-39-27.5
			c13.2,3,25.9,8.2,37.5,15.3c-12.9-11.6-26-22.9-39.4-33.9c12.5,3.7,24.3,9.6,34.7,17.3c-10.6-9.9-20.2-20.8-28.6-32.7
			c9.7,3.9,18.7,9.4,26.7,16.2c-7.6-9.2-15.2-18.5-22.9-27.7c11.5,4.1,21.9,11.3,29.9,20.5c-5.1-15-10.3-30-15.4-45
			c7.6,12.6,15.3,25.2,22.9,37.9c-0.4-19.2-1.5-38.5-3.5-57.6c5.9,16.7,11.7,33.4,17.6,50.1c1.2-24.7,2.4-49.3,3.6-74
			c3.1,20.1,7.6,40,13.4,59.5c5.3-18.7,7.9-38.1,7.7-57.5c2,22.2,4,44.3,6,66.5c6.1-24.8,10.7-50,13.9-75.3c0.8,22,1.7,44,2.5,65.9
			c5.1-19.4,10.2-38.8,15.4-58.2c0.7,19.4,1.4,38.9,2,58.3c3.7-19.1,8.8-37.8,15.5-56.1c-1.3,21.5-3.9,42.9-7.7,64.1
			c4.9-21.8,9.8-43.6,14.6-65.4c-1.9,23.6-3.9,47.2-5.8,70.8c25.3-3.9,50.3-10,74.5-18.2c-16,10.9-32,21.8-48,32.7
			c18.1,2.8,36.7,2.8,54.8-0.1c-19.2,8.5-38.4,17-57.6,25.6c15.8,2.4,31.6,4.8,47.4,7.2c-14.7,3.2-29.5,5.7-44.5,7.7
			c7.7,5.8,15.3,11.6,23,17.5c-11.7,1.7-23.9-0.2-34.6-5.3c7.8,4.4,15,10,21.1,16.5c-10.9-5.5-22-10.6-33.3-15.1
			c3.2,4.7,5.7,9.8,7.5,15.1c-5.3-4.4-11.2-8.1-17.5-10.9c0.3,6.7,0.7,13.4,1,20c0.1,1.5,0.1,3.1-1,4.2c-0.8,0.8-2.1,1-3.3,1.1
			c-20.4,2.3-40.7,4.5-61.1,6.8C782.6,201.4,783.4,196.5,778.4,192.5z"/>
		<path class="st15" d="M872.4,126.1c-4.9-1.8-9.8-3.5-14.8-5.3c5,5.5,10,11,15,16.4c-7.4-2.1-14.8-4.2-22.2-6.3
			c3.4,5.2,6.7,10.5,10.1,15.7c-8.8-2-17.3-5-25.4-8.9c3.7,6.2,6.5,13,8.4,19.9c-8-3.2-15.7-7.4-22.8-12.4c2.5,6.4,4.2,13.2,4.9,20
			c-4.7-4.1-8.8-9-11.8-14.4c-1.9,7-3.8,14-5.8,20.9c-2-5.7-2.9-11.8-2.5-17.8c-4.3,6.9-8.6,13.7-13,20.6c1.9-6.1,3.8-12.2,5.6-18.3
			c-7.3,4.8-14.5,9.6-21.8,14.4c3.3-4.7,6.7-9.4,10-14.1c-8.1,3.6-16.5,6.3-25.1,8.2c7.8-4.8,15.1-10.3,21.8-16.5
			c-6.9,5.6-17.1,1.9-25.1-2c-9.4-4.6-18.7-9.1-28.1-13.7c9,7.6,17.9,15.3,26.6,23.2c-11.5-7.1-24.2-12.3-37.5-15.3
			c13.5,8.5,26.5,17.6,39,27.5c-11.8-8.5-26.3-13.1-40.8-12.9c21.9,9.7,42.6,22.3,61.3,37.4c5,4,4.2,8.9,10,11.6
			c20.4-2.3,40.7-4.5,61.1-6.8c1.2-0.1,2.4-0.3,3.3-1.1c1.1-1,1-2.7,1-4.2c-0.3-6.7-0.7-13.4-1-20c6.3,2.8,12.2,6.5,17.5,10.9
			c-1.8-5.3-4.4-10.4-7.5-15.1c11.3,4.5,22.4,9.6,33.3,15.1c-6.1-6.5-13.3-12.1-21.1-16.5c10.7,5.1,22.9,7,34.6,5.3
			c-7.7-5.8-15.3-11.6-23-17.5c14.9-1.9,29.8-4.5,44.5-7.7c-15.8-2.4-31.6-4.8-47.4-7.2c19.2-8.5,38.4-17,57.6-25.6
			c-18.1,2.9-36.7,2.9-54.8,0.1c13.9-9.5,27.9-19,41.8-28.5c-23,9.1-46.1,18.1-69.1,27.2C863.7,116.7,868.3,121.2,872.4,126.1z"/>
		<g>
			<polygon class="st2" points="864.6,347.8 760.5,347.8 737.7,183.1 883.7,183.1 			"/>
			<path class="st3" d="M883.7,183.1H831c0,39.7,0,120.1,0,164.7h33.5L883.7,183.1z"/>
		</g>
	</g>
	<g>
		<path class="st3" d="M375.5,140c-7-11.1-12.9-23.5-12.9-36.6c0-13.1,7.1-26.9,19.5-31.4c15.6-5.6,32.9,5.7,40.9,20.2
			s9.5,31.5,13,47.7c1.3,5.9,5.1,13.2,11,12c5.7-1.2,6.5-8.8,5.9-14.6c-2.6-23.1-8.5-46.1-6.5-69.3c2-23.2,14.2-47.6,36.2-55
			c9.3-3.1,20.4-2.7,27.7,3.8c8.1,7.1,9.5,19.3,7,29.8s-8,19.9-11.9,29.8c-6.9,17.4-8.8,36.7-5.6,55.1c6.8,4.6,14.5-4.1,20.2-10
			c9-9.3,22-13.3,34.5-16.4c11.8-2.9,24.2-5.3,36-2.5c11.8,2.8,22.9,12.3,23.7,24.4c0.9,12.8-9.5,24-21.3,29.1
			c-11.7,5.1-24.9,5.8-37.4,8.4c-12.5,2.6-25.6,7.9-32.2,18.8c-3.5,5.8-4.9,12.7-8.6,18.3c-13.8,21.4-58.7,19-78.3,7.6
			c-9.4-5.5-15.4-15.7-22.6-23.6C400.3,170.9,386.3,157.1,375.5,140z"/>
		<g>
			<path class="st15" d="M399.3,85.3c6.4,9.9,8.7,21.9,11.2,33.4s5.9,23.5,14,32.1c6.2,6.6,16.7,10.7,24.4,5.8
				c5.7-3.7,7.8-11.2,7.1-18c-0.6-5.7-2.9-11-5.2-16.3c0.8,5,1.5,10,2,15c0.6,5.8-0.2,13.4-5.9,14.6c-5.9,1.2-9.7-6.1-11-12
				c-3.6-16.2-5.1-33.2-13-47.7C415,78,398.2,66.8,382.8,71.8C389.4,74.2,395.3,79.3,399.3,85.3z"/>
			<path class="st15" d="M480,111.6c-0.4,10.5,2.7,23.8,13,25.6c5,0.8,9.4-1.4,13.3-4.8c-2.2,0.7-4.4,0.5-6.5-0.9
				c-3.2-18.4-1.3-37.7,5.6-55.1c3.9-10,9.5-19.4,11.9-29.8c1.9-8.1,1.4-17.3-2.6-24.3c-2.8,5.7-6.8,10.8-10.4,16.1
				C489.6,59.9,481.1,85.6,480,111.6z"/>
		</g>
		<g>
			<polygon class="st2" points="520.8,347.8 416.7,347.8 393.9,183.1 539.9,183.1 			"/>
			<path class="st3" d="M539.9,183.1h-52.7c0,39.7,0,120.1,0,164.7h33.5L539.9,183.1z"/>
		</g>
		<circle class="st15" cx="559.1" cy="126.9" r="4.1"/>
		<circle class="st15" cx="471" cy="114.7" r="4.1"/>
		<circle class="st15" cx="462.8" cy="166.7" r="4.1"/>
		<circle class="st15" cx="417.4" cy="166.7" r="4.1"/>
		<circle class="st15" cx="399.4" cy="146.5" r="4.1"/>
		<circle class="st15" cx="401.1" cy="120.9" r="4.1"/>
		<circle class="st15" cx="456.2" cy="82.3" r="4.1"/>
		<circle class="st15" cx="475.1" cy="75.7" r="4.1"/>
		<circle class="st15" cx="464.3" cy="45.2" r="4.1"/>
		<circle class="st15" cx="488.4" cy="41.1" r="4.1"/>
		<circle class="st15" cx="589.8" cy="118.8" r="4.1"/>
		<circle class="st15" cx="567.3" cy="147.5" r="4.1"/>
		<circle class="st15" cx="597" cy="139.2" r="4.1"/>
		<circle class="st15" cx="530.8" cy="154.7" r="4.1"/>
		<circle class="st15" cx="483.2" cy="147.5" r="4.1"/>
		<circle class="st15" cx="434.6" cy="174.9" r="4.1"/>
		<circle class="st15" cx="382.8" cy="106.5" r="4.1"/>
		<circle class="st15" cx="499.2" cy="176.3" r="4.1"/>
		<circle class="st15" cx="528.1" cy="135.1" r="4.1"/>
	</g>
</g>
</svg>
